HIERARCHY
ROOT SpineBase
{
  OFFSET 0.000000 0.000000 0.000000
  CHANNELS 6 Xposition Yposition Zposition Zrotation Xrotation Yrotation
  JOINT SpineMid
  {
    OFFSET 0.000000 30.987838 0.000000
    CHANNELS 3 Zrotation Xrotation Yrotation
    JOINT SpineShoulder
    {
      OFFSET -0.387833 22.998137 -0.818615
      CHANNELS 3 Zrotation Xrotation Yrotation
      JOINT Neck
      {
        OFFSET -0.259220 7.609734 -0.589301
        CHANNELS 3 Zrotation Xrotation Yrotation
        JOINT Head
        {
          OFFSET -1.011274 12.737140 4.093156
          CHANNELS 3 Zrotation Xrotation Yrotation
          End Site
          {
            OFFSET 0 0 0
          }
        }
      }
      JOINT ShoulderLeft
      {
        OFFSET -9.121829 -7.912492 -16.775010
        CHANNELS 3 Zrotation Xrotation Yrotation
        JOINT ElbowLeft
        {
          OFFSET -1.617278 -22.662270 -0.321808
          CHANNELS 3 Zrotation Xrotation Yrotation
          JOINT WristLeft
          {
            OFFSET -5.107390 -18.700513 10.712838
            CHANNELS 3 Zrotation Xrotation Yrotation
            JOINT HandLeft
            {
              OFFSET -0.861155 -2.576326 -3.172956
              CHANNELS 3 Zrotation Xrotation Yrotation
              JOINT HandTipLeft
              {
                OFFSET -3.123441 -7.240206 1.320534
                CHANNELS 3 Zrotation Xrotation Yrotation
                End Site
                {
                  OFFSET 0 0 0
                }
              }
              JOINT ThumbLeft
              {
                OFFSET 3.006087 -0.511677 -0.367106
                CHANNELS 3 Zrotation Xrotation Yrotation
                End Site
                {
                  OFFSET 0 0 0
                }
              }
            }
          }
        }
      }
      JOINT ShoulderRight
      {
        OFFSET -2.141151 -5.575227 -12.460247
        CHANNELS 3 Zrotation Xrotation Yrotation
        JOINT ElbowRight
        {
          OFFSET -7.536153 -21.550523 -4.177977
          CHANNELS 3 Zrotation Xrotation Yrotation
          JOINT WristRight
          {
            OFFSET -5.441315 -20.908364 4.922500
            CHANNELS 3 Zrotation Xrotation Yrotation
            JOINT HandRight
            {
              OFFSET -1.693478 -7.158261 3.571620
              CHANNELS 3 Zrotation Xrotation Yrotation
              JOINT HandTipRight
              {
                OFFSET -2.477119 -7.031758 1.505283
                CHANNELS 3 Zrotation Xrotation Yrotation
                End Site
                {
                  OFFSET 0 0 0
                }
              }
              JOINT ThumbRight
              {
                OFFSET -2.603470 -1.405668 -3.089791
                CHANNELS 3 Zrotation Xrotation Yrotation
                End Site
                {
                  OFFSET 0 0 0
                }
              }
            }
          }
        }
      }
    }
  }
  JOINT HipLeft
  {
    OFFSET -6.098359 -0.108831 -1.513779
    CHANNELS 3 Zrotation Xrotation Yrotation
    JOINT KneeLeft
    {
      OFFSET 16.619213 -33.731547 3.807434
      CHANNELS 3 Zrotation Xrotation Yrotation
      JOINT AnkleLeft
      {
        OFFSET 3.717366 -35.257124 3.742907
        CHANNELS 3 Zrotation Xrotation Yrotation
        JOINT FootLeft
        {
          OFFSET -13.714680 -4.342774 -4.726963
          CHANNELS 3 Zrotation Xrotation Yrotation
          End Site
          {
            OFFSET 0 0 0
          }
        }
      }
    }
  }
  JOINT HipRight
  {
    OFFSET 3.278592 1.896541 -5.014142
    CHANNELS 3 Zrotation Xrotation Yrotation
    JOINT KneeRight
    {
      OFFSET -10.569502 -29.938113 0.363745
      CHANNELS 3 Zrotation Xrotation Yrotation
      JOINT AnkleRight
      {
        OFFSET 7.793344 -38.411957 -0.768900
        CHANNELS 3 Zrotation Xrotation Yrotation
        JOINT FootRight
        {
          OFFSET 1.534935 -4.773461 -6.128631
          CHANNELS 3 Zrotation Xrotation Yrotation
          End Site
          {
            OFFSET 0 0 0
          }
        }
      }
    }
  }
}
MOTION
Frames: 16
Frame Time: 0.033333
130.506864 75.647620 317.543743 -0.000000 0.000000 20.470321 0.000000 -0.000000 -20.470321 -0.000000 0.000000 0.000000 -0.000000 0.000000 0.000000 0.000000 0.000000 0.000000 -0.000000 0.000000 0.000000 -0.000000 0.000000 0.000000 -0.000000 0.000000 0.000000 -0.000000 0.000000 0.000000 0.000000 0.000000 0.000000 0.000000 0.000000 0.000000 -0.000000 0.000000 0.000000 -0.000000 0.000000 0.000000 -0.000000 0.000000 0.000000 -0.000000 0.000000 0.000000 0.000000 0.000000 0.000000 0.000000 0.000000 0.000000 0.000000 -0.000000 -20.470321 -0.000000 0.000000 0.000000 -0.000000 0.000000 0.000000 0.000000 0.000000 0.000000 0.000000 -0.000000 -20.470321 -0.000000 0.000000 0.000000 -0.000000 0.000000 0.000000 0.000000 0.000000 0.000000
130.468899 75.640419 317.564740 0.008284 -0.094418 20.521305 0.025341 0.091330 -20.521319 -0.000000 0.000000 0.000000 -0.000000 0.000000 0.000000 0.000000 0.000000 0.000000 -0.000000 0.000000 0.000000 -0.000000 0.000000 0.000000 1.254981 -1.046698 -1.202216 -0.051699 1.061002 1.420806 0.000000 0.000000 0.000000 0.000000 0.000000 0.000000 -0.000000 0.000000 0.000000 -0.000000 0.000000 0.000000 -0.000000 0.000000 0.000000 0.297954 0.994173 -0.289837 0.000000 0.000000 0.000000 0.000000 0.000000 0.000000 0.025341 0.091330 -20.521319 -0.000000 0.000000 0.000000 0.717413 1.676684 -6.104520 0.000000 0.000000 0.000000 1.021582 -0.075695 -20.577655 -0.991386 -0.193780 0.054524 -7.230017 -17.307934 3.294973 0.000000 0.000000 0.000000
130.436807 75.635316 317.585534 0.015246 -0.179397 20.586783 0.048808 0.173301 -20.586833 -0.000000 0.000000 0.000000 -0.000000 0.000000 0.000000 0.000000 0.000000 0.000000 -0.000000 0.000000 0.000000 -0.000000 0.000000 0.000000 2.432599 -1.878557 -2.393506 -0.251679 1.976033 2.768657 0.000000 0.000000 0.000000 0.000000 0.000000 0.000000 -0.000000 0.000000 0.000000 -0.000000 0.000000 0.000000 -0.000000 0.000000 0.000000 0.598867 1.740338 -0.496548 0.000000 0.000000 0.000000 0.000000 0.000000 0.000000 0.048808 0.173301 -20.586833 -0.000000 0.000000 0.000000 1.851340 3.083012 -12.021714 0.000000 0.000000 0.000000 1.829086 -0.130890 -20.686980 -1.772969 -0.344285 0.094160 -14.746484 -35.292406 4.724254 0.000000 0.000000 0.000000
130.410587 75.632313 317.606122 0.020887 -0.254945 20.666754 0.070436 0.245910 -20.666858 -0.000000 0.000000 0.000000 -0.000000 0.000000 0.000000 0.000000 0.000000 0.000000 -0.000000 0.000000 0.000000 -0.000000 0.000000 0.000000 3.520310 -2.464776 -3.567206 -0.600325 2.706476 4.033175 0.000000 0.000000 0.000000 0.000000 0.000000 0.000000 -0.000000 0.000000 0.000000 -0.000000 0.000000 0.000000 -0.000000 0.000000 0.000000 0.902240 2.246313 -0.620284 0.000000 0.000000 0.000000 0.000000 0.000000 0.000000 0.070436 0.245910 -20.666858 -0.000000 0.000000 0.000000 3.320742 4.012716 -17.204865 0.000000 0.000000 0.000000 2.432691 -0.166631 -20.798941 -2.354841 -0.453050 0.121137 -21.986232 -49.426789 3.968976 0.000000 0.000000 0.000000
130.390240 75.631410 317.626506 0.025208 -0.321069 20.761199 0.090241 0.309156 -20.761372 -0.000000 0.000000 0.000000 -0.000000 0.000000 0.000000 0.000000 0.000000 0.000000 -0.000000 0.000000 0.000000 -0.000000 0.000000 0.000000 4.507842 -2.779330 -4.716447 -1.093271 3.217485 5.202225 0.000000 0.000000 0.000000 0.000000 0.000000 0.000000 -0.000000 0.000000 0.000000 0.659353 -0.617497 0.319562 0.072717 1.093674 -0.072997 0.491420 2.037531 -0.903335 0.000000 0.000000 0.000000 0.000000 0.000000 0.000000 0.090241 0.309156 -20.761372 -0.000000 0.000000 0.000000 4.986358 4.326656 -21.105397 0.000000 0.000000 0.000000 2.840094 -0.183452 -20.913901 -2.744593 -0.521266 0.137025 -28.504766 -58.572840 1.913650 0.000000 0.000000 0.000000
130.375765 75.632606 317.646685 0.028208 -0.377776 20.870086 0.108227 0.363039 -20.870336 -0.000000 0.000000 0.000000 -0.000000 0.000000 0.000000 0.000000 0.000000 0.000000 -0.791239 -0.263243 0.028191 0.791376 0.262828 -0.031824 5.387368 -2.802053 -5.833880 -1.721404 3.479862 6.261013 0.000000 0.000000 0.000000 0.000000 0.000000 0.000000 -0.000000 0.000000 0.000000 0.724398 -0.788114 0.380646 0.115912 1.575636 -0.159248 0.696827 1.759194 -0.826244 0.000000 0.000000 0.000000 0.000000 0.000000 0.000000 0.108227 0.363039 -20.870336 -0.000000 0.000000 0.000000 6.708328 3.979205 -23.264121 0.000000 0.000000 0.000000 3.056535 -0.181362 -21.031970 -2.947349 -0.549734 0.142816 -33.618837 -63.759855 -0.027824 0.000000 0.000000 0.000000
130.363721 75.637562 317.674077 0.023129 -0.434035 21.072674 0.134478 0.413325 -21.073071 -0.000000 0.000000 0.000000 -0.000000 0.000000 0.000000 0.000000 0.000000 0.000000 -0.876126 -0.339205 0.034038 0.876343 0.338644 -0.039221 6.196633 -2.698628 -6.908209 -2.534482 3.522369 7.252783 0.000000 0.000000 0.000000 0.000000 0.000000 0.000000 -0.000000 0.000000 0.000000 0.747225 -1.096464 0.468170 0.016786 2.354137 -0.402183 0.109488 1.067317 -0.722453 0.000000 0.000000 0.000000 0.000000 0.000000 0.000000 1.255263 -0.371372 -21.085707 -2.655589 0.818837 -0.060012 10.233640 2.651051 -24.726136 0.000000 0.000000 0.000000 3.010303 -0.146378 -21.226842 -2.883429 -0.519219 0.134002 -28.787741 -57.638754 6.172134 0.000000 0.000000 0.000000
130.359487 75.641407 317.697568 0.024376 -0.477912 21.265256 0.150619 0.454212 -21.265752 -0.000000 0.000000 0.000000 -0.000000 0.000000 0.000000 0.000000 0.000000 0.000000 -0.921844 -0.390481 0.037796 0.922123 0.389822 -0.044074 6.583220 -2.424933 -7.495807 -3.528644 3.227962 7.696210 0.000000 0.000000 0.000000 0.000000 0.000000 0.000000 -0.000000 0.000000 0.000000 0.675003 -1.439548 0.541280 0.342699 3.594923 -0.589149 0.856139 -1.019648 0.045566 0.000000 0.000000 0.000000 0.000000 0.000000 0.000000 2.195837 -1.150822 -21.342993 -5.080522 2.139938 0.043375 10.421189 2.977932 -26.504344 0.000000 0.000000 0.000000 3.037216 -0.159774 -21.406743 -2.911612 -0.481666 0.121331 -29.636308 -58.092073 8.020668 0.000000 0.000000 0.000000
130.367513 75.651783 317.718565 0.021657 -0.502491 21.381579 0.163034 0.475801 -21.382161 -0.000000 0.000000 0.000000 -0.000000 0.000000 0.000000 0.000000 0.000000 0.000000 -0.964492 -0.441046 0.041436 0.964839 0.440286 -0.048856 6.926629 -1.894398 -8.109336 -4.207064 3.193099 7.954032 0.000000 0.000000 0.000000 0.000000 0.000000 0.000000 -0.000000 0.000000 0.000000 0.622372 -1.444279 0.529433 0.243383 3.918113 -0.728322 3.220766 -1.825639 0.958941 0.000000 0.000000 0.000000 0.000000 0.000000 0.000000 1.702647 -0.592904 -21.388442 -3.578484 1.824032 0.009710 12.336754 -0.279058 -20.427719 0.000000 0.000000 0.000000 0.962949 0.771898 -21.583838 -0.634925 -0.569512 0.189812 -30.497177 -59.013326 8.464065 0.000000 0.000000 0.000000
130.380585 75.655705 317.725412 0.029041 -0.504179 21.445683 0.157310 0.479889 -21.446214 -0.000000 0.000000 0.000000 -0.000000 0.000000 0.000000 0.000000 0.000000 0.000000 -1.011222 -0.490320 0.044999 1.011643 0.489449 -0.053647 7.202144 -0.277444 -8.969025 -4.686330 1.504735 8.589467 0.000000 0.000000 0.000000 0.000000 0.000000 0.000000 -0.000000 0.000000 0.000000 0.545451 -1.193173 0.444086 0.317103 3.689997 -0.647089 4.757951 -2.385577 1.582533 0.000000 0.000000 0.000000 0.000000 0.000000 0.000000 1.896216 -0.670746 -21.427673 -3.784881 2.044109 0.014194 11.516343 -1.406800 -14.919009 0.000000 0.000000 0.000000 1.746113 0.001170 -21.480758 -1.653738 -0.136244 0.025907 -36.766522 -65.945093 4.724335 0.000000 0.000000 0.000000
130.395775 75.660171 317.730326 0.028442 -0.493495 21.445314 0.153959 0.469727 -21.445823 -0.000000 0.000000 0.000000 -0.000000 0.000000 0.000000 0.000000 0.000000 0.000000 -1.048748 -0.531521 0.047932 1.049237 0.530554 -0.057655 7.433669 1.403750 -9.769621 -4.803807 -0.769430 9.421817 0.000000 0.000000 0.000000 0.000000 0.000000 0.000000 -0.000000 0.000000 0.000000 0.360392 -0.958519 0.336931 0.815902 3.741383 -0.464710 5.950384 -2.924436 2.024215 0.000000 0.000000 0.000000 0.000000 0.000000 0.000000 1.920850 -0.692514 -21.423646 -3.968918 2.066560 0.000852 11.993472 -2.087685 -12.725032 0.000000 0.000000 0.000000 1.388817 -0.049080 -21.422913 -1.339023 0.031964 -0.027069 -35.441121 -64.778708 4.936241 0.000000 0.000000 0.000000
130.408006 75.669976 317.741639 0.013765 -0.490387 21.382334 0.165976 0.461651 -21.382943 -0.000000 0.000000 0.000000 -0.000000 0.000000 0.000000 0.000000 0.000000 0.000000 -1.087587 -0.570234 0.050696 1.088144 0.569168 -0.061513 7.741925 2.615558 -10.513208 -4.627327 -2.365534 10.247329 0.000000 0.000000 0.000000 0.000000 0.000000 0.000000 -0.000000 0.000000 0.000000 0.398788 -0.958346 0.346265 1.205063 3.842566 -0.301736 5.643764 -2.788033 1.761768 0.000000 0.000000 0.000000 0.000000 0.000000 0.000000 1.930925 -0.695381 -21.360158 -3.977600 1.926492 -0.017732 9.075940 -1.502951 -9.317973 0.000000 0.000000 0.000000 2.116480 -0.654322 -21.235872 -3.056996 0.866136 -0.003997 -21.974477 -45.734843 10.434041 0.000000 0.000000 0.000000
130.421086 75.678078 317.752156 -0.003478 -0.485418 21.280204 0.179418 0.451058 -21.280925 -0.000000 0.000000 0.000000 -0.000000 0.000000 0.000000 0.000000 0.000000 0.000000 -1.129966 -0.601626 0.053015 1.130584 0.600463 -0.064872 7.927751 2.850357 -10.816402 -4.723627 -2.614451 10.512681 0.000000 0.000000 0.000000 0.000000 0.000000 0.000000 -0.000000 0.000000 0.000000 -0.000000 0.000000 0.000000 0.667145 1.414887 -0.010184 5.931946 -0.442328 1.198572 0.000000 0.000000 0.000000 0.000000 0.000000 0.000000 1.876643 -0.761157 -21.300963 -4.263520 2.332127 0.043508 11.699083 -5.175831 1.390497 0.000000 0.000000 0.000000 4.360182 -2.202416 -20.813923 -7.244404 2.158597 -0.011843 -17.106409 -42.142803 6.787548 0.000000 0.000000 0.000000
130.446039 75.667915 317.740128 -0.010390 -0.459848 21.186553 0.175883 0.425011 -21.187247 -0.000000 0.000000 0.000000 -0.000000 0.000000 0.000000 0.000000 0.000000 0.000000 -1.175814 -0.632325 0.055299 1.176495 0.631056 -0.068266 8.194822 4.645084 -11.651876 -3.860759 -5.600022 11.913226 0.000000 0.000000 0.000000 0.000000 0.000000 0.000000 -0.000000 0.000000 0.000000 1.007132 0.284044 0.161162 -1.007939 -0.281166 -0.166132 5.907608 2.487476 0.267066 0.000000 0.000000 0.000000 0.000000 0.000000 0.000000 1.852337 -0.792946 -21.216426 -4.299477 2.608513 0.082808 14.092736 -6.095115 1.182042 0.000000 0.000000 0.000000 6.567563 -3.283179 -20.519340 -11.120900 2.723716 0.081441 -10.273585 -31.315040 5.914491 0.000000 0.000000 0.000000
130.444769 75.657294 317.762889 -0.056350 -0.483354 21.355230 0.228499 0.429646 -21.356324 -0.000000 0.000000 0.000000 -0.000000 0.000000 0.000000 0.000000 0.000000 0.000000 -1.221422 -0.662400 0.057517 1.222168 0.661023 -0.071629 8.539974 3.564609 -11.795247 -4.180893 -5.506028 12.552007 0.000000 0.000000 0.000000 0.000000 0.000000 0.000000 -0.000000 0.000000 0.000000 1.129610 0.487575 0.134739 -0.449885 0.130240 0.051635 6.984258 2.981042 0.015232 0.000000 0.000000 0.000000 0.000000 0.000000 0.000000 1.970334 -0.767339 -21.355567 -3.942384 1.689124 -0.023909 15.983384 -5.467248 -1.739772 0.000000 0.000000 0.000000 7.607838 -3.783344 -20.582111 -12.993997 3.012838 0.145918 -2.590868 -16.812869 3.350240 0.000000 0.000000 0.000000
130.437775 75.646906 317.810657 -0.127297 -0.535320 21.648827 0.315814 0.450595 -21.650664 -0.000000 0.000000 0.000000 -0.000000 0.000000 0.000000 0.000000 0.000000 0.000000 -1.263049 -0.691459 0.059619 1.263859 0.689976 -0.074851 8.820529 1.060693 -11.447999 -5.670950 -3.088056 12.161254 0.000000 0.000000 0.000000 0.000000 0.000000 0.000000 -0.000000 0.000000 0.000000 0.977571 -0.312286 0.314588 0.864658 1.646180 0.262802 3.190667 2.675257 -1.051029 0.000000 0.000000 0.000000 0.000000 0.000000 0.000000 2.144744 -0.669010 -21.589446 -3.606391 1.077429 -0.116210 13.261358 -4.146782 -2.103605 0.000000 0.000000 0.000000 7.317834 -3.542102 -20.949896 -12.354255 2.770661 0.127998 6.359779 1.850510 -1.696527 0.000000 0.000000 0.000000
